<svg fill="#000000" xmlns="http://www.w3.org/2000/svg"  viewBox="0 0 26 26" width="100px" height="100px"><path fill-rule="evenodd" d="M 9 0.101563 C 9 0.601563 8.800781 1 8.699219 1.398438 C 8.601563 1.898438 8.5 2.300781 8.398438 2.800781 C 8.101563 3.898438 7.800781 5.101563 7.898438 6.601563 C 8.800781 6.800781 10 6.601563 10.800781 6.5 C 11.300781 6.800781 11.5 7.300781 12 7.601563 C 11.898438 7 12.300781 6.898438 12.601563 6.800781 C 12.5 7 12.199219 7.199219 12.300781 7.699219 C 12.5 7.800781 12.5 7.5 12.699219 7.398438 C 12.898438 7.601563 13.199219 7.601563 13.398438 7.398438 C 13.601563 7.398438 13.5 7.699219 13.699219 7.699219 C 13.898438 7.398438 13.601563 7 13.5 6.800781 C 13.800781 7 14.199219 7.101563 14.101563 7.601563 C 14.398438 7.398438 14.800781 6.898438 15.199219 6.601563 C 16.101563 6.800781 17.199219 6.898438 18.199219 6.800781 C 18.199219 4.300781 17.5 2.300781 16.898438 0.300781 C 17.101563 0.300781 17.101563 0.5 17.101563 0.601563 C 17.699219 1.898438 18.300781 3.5 18.699219 5.101563 C 18.800781 5.300781 18.898438 5.699219 19 6 C 19.101563 6.300781 19.199219 6.800781 19.199219 6.898438 C 19.101563 7.199219 18.601563 7.398438 18.398438 7.699219 C 18.101563 7.300781 17.101563 7.398438 16.101563 7.398438 C 15.800781 7.398438 15.5 7.300781 15.300781 7.398438 C 14.898438 7.5 14.800781 8 14.601563 8.300781 C 15.101563 8.300781 15.5 7.800781 16 7.800781 C 16.300781 7.800781 16.699219 8 17.101563 8.101563 C 18.199219 8.398438 19.398438 8.601563 20.398438 8.898438 C 20.5 5.5 19.601563 2.800781 18.398438 0.5 C 19.601563 2.101563 20.300781 3.898438 20.898438 6.101563 C 21 6.300781 21 6.601563 21.101563 7 C 21.199219 7.5 21.199219 8.199219 21.5 8.601563 C 21.199219 9 20.699219 9.300781 20.398438 9.601563 C 19.398438 9 17.398438 8.101563 15.699219 8.300781 C 15.300781 8.300781 14.898438 8.5 14.699219 8.800781 C 15.199219 9 15.601563 9 16.199219 9 C 16.398438 9 16.601563 8.898438 16.699219 9 C 16.800781 9 17.101563 9.300781 17.300781 9.5 C 18.5 10.699219 19.601563 11.601563 21 12.5 C 21.398438 12.800781 21.699219 13.101563 22.199219 12.699219 C 22.300781 16.699219 21.199219 19.601563 19.898438 22.300781 C 19.699219 22.601563 19.699219 23 19.398438 23.199219 C 20.398438 20.898438 21.101563 18.199219 21.101563 15 C 21.101563 14.699219 21.199219 14.199219 21.101563 14 C 21 13.601563 20.398438 13.101563 20 12.800781 C 18.898438 11.800781 18.101563 11.101563 16.898438 10.199219 C 16.699219 10 16.5 9.800781 16.300781 9.699219 C 16.101563 9.601563 15.800781 9.601563 15.5 9.601563 C 15.199219 9.601563 14.898438 9.5 14.699219 9.5 C 15.199219 10 15.898438 10.601563 16.5 11.101563 C 16.601563 11.199219 16.699219 11.101563 16.898438 11.101563 C 17.101563 15.699219 16.699219 20.300781 15.398438 23.699219 C 15.101563 24.5 14.699219 25.300781 14.199219 25.898438 C 16 22.699219 16.101563 17.199219 15.699219 12.300781 C 16.101563 12 15.898438 11.699219 15.601563 11.300781 C 15.199219 10.898438 14.601563 10.199219 14.101563 10 C 14.101563 10.199219 14.101563 10.398438 14.199219 10.601563 C 14.300781 10.800781 14.5 11 14.5 11.101563 C 14.601563 11.5 14.398438 12.300781 14.300781 12.699219 C 14 14.101563 13.5 15.699219 13 16.800781 C 12.800781 16.800781 12.898438 16.5 12.800781 16.398438 C 12.601563 16.398438 12.699219 16.699219 12.601563 16.800781 C 12 15.800781 11.5 14.199219 11.300781 12.699219 C 11.199219 12.199219 11.101563 11.5 11.101563 11.101563 C 11.199219 10.699219 11.601563 10.398438 11.5 10 C 11.101563 10.101563 10.800781 10.5 10.5 10.800781 C 10.199219 11.101563 9.898438 11.5 9.699219 11.800781 C 9.699219 12 9.898438 12 9.898438 12.199219 C 9.601563 17.101563 9.601563 22.601563 11.5 25.800781 C 11.300781 25.800781 11.199219 25.5 11.101563 25.398438 C 9.601563 22.699219 9.199219 18.398438 9 14 C 9 13 8.898438 12.101563 9 11.101563 C 9 10.898438 9.199219 11.199219 9.398438 11.101563 C 10.101563 10.601563 10.699219 10 11.300781 9.5 C 10.800781 9.601563 10.199219 9.601563 9.699219 9.699219 C 9.300781 9.898438 8.800781 10.300781 8.398438 10.699219 C 7.199219 11.699219 5.898438 12.800781 4.898438 13.898438 C 4.699219 17.601563 5.5 20.601563 6.601563 23.199219 C 5 20.398438 3.601563 17.199219 3.800781 12.800781 C 4.398438 13.300781 5.199219 12.5 5.699219 12.101563 C 6.898438 11.199219 8.300781 10 9.199219 9 C 9.898438 9.101563 10.699219 9 11.300781 8.898438 C 10.601563 8 8.699219 8.398438 7.601563 8.800781 C 6.800781 9 6.101563 9.300781 5.699219 9.699219 C 5.199219 9.398438 4.898438 9 4.5 8.699219 C 4.800781 8 4.898438 6.699219 5.101563 5.898438 C 5.699219 3.800781 6.5 2 7.601563 0.300781 C 7.601563 0.601563 7.398438 0.898438 7.199219 1.199219 C 6.300781 3.199219 5.699219 5.800781 5.699219 8.699219 C 6.699219 8.5 7.800781 8.199219 9 7.898438 C 9.398438 7.800781 9.800781 7.601563 10 7.601563 C 10.5 7.601563 10.898438 8.101563 11.398438 8.101563 C 11.300781 7.699219 11 7.398438 10.800781 7.199219 C 9.898438 7.199219 8.898438 7.101563 8.101563 7.199219 C 8.101563 7.199219 8 7.300781 7.898438 7.300781 C 7.898438 7.300781 7.699219 7.5 7.699219 7.5 C 7.5 7.5 7 6.898438 6.898438 6.800781 C 7.300781 4.300781 8.199219 2.199219 9 0.101563 Z"/></svg>