<svg fill="#000000" xmlns="http://www.w3.org/2000/svg"  viewBox="0 0 26 26" width="100px" height="100px"><path d="M 13 0 C 10.039063 0 7.269531 0.914063 5.25 2.78125 C 4.59375 3.386719 4.035156 4.109375 3.5625 4.90625 C 3.367188 5.070313 3.242188 5.308594 3.21875 5.5625 C 2.453125 7.097656 2 8.917969 2 11 C 2 13.289063 2.5 15.613281 3.375 17.75 C 3.390625 17.984375 3.492188 18.207031 3.65625 18.375 C 4.078125 19.308594 4.570313 20.210938 5.125 21.03125 C 7.054688 23.878906 9.800781 25.96875 13 25.96875 C 14.753906 25.96875 16.359375 25.320313 17.78125 24.28125 C 18.117188 24.226563 18.402344 24 18.53125 23.6875 C 19.398438 22.929688 20.195313 22.035156 20.875 21.03125 C 22.804688 18.183594 24 14.535156 24 11 C 24 10.882813 23.972656 10.773438 23.96875 10.65625 C 24.09375 10.375 24.082031 10.050781 23.9375 9.78125 C 23.777344 7.910156 23.25 6.273438 22.4375 4.90625 C 22.4375 4.894531 22.4375 4.886719 22.4375 4.875 C 22.425781 4.855469 22.417969 4.832031 22.40625 4.8125 C 22.363281 4.734375 22.3125 4.660156 22.25 4.59375 C 21.816406 3.921875 21.320313 3.308594 20.75 2.78125 C 20.097656 2.175781 19.355469 1.6875 18.5625 1.28125 C 18.453125 1.191406 18.324219 1.128906 18.1875 1.09375 C 16.625 0.371094 14.851563 0 13 0 Z M 13 1.96875 C 13.320313 1.96875 13.628906 1.976563 13.9375 2 C 10.167969 3.113281 8.074219 4.394531 7.5 4.78125 C 7.007813 4.742188 6.550781 4.738281 6.15625 4.71875 C 6.300781 4.558594 6.4375 4.394531 6.59375 4.25 C 8.191406 2.773438 10.4375 1.96875 13 1.96875 Z M 17.8125 3.125 C 18.394531 3.441406 18.929688 3.8125 19.40625 4.25 C 19.417969 4.261719 19.425781 4.269531 19.4375 4.28125 C 15.945313 4.433594 13.363281 5.339844 12.78125 5.5625 C 12.121094 5.425781 11.480469 5.316406 10.875 5.21875 C 12.433594 4.511719 14.742188 3.6875 17.8125 3.125 Z M 19.84375 6.21875 C 20.199219 6.210938 20.566406 6.238281 20.9375 6.25 C 21.289063 6.914063 21.539063 7.664063 21.71875 8.5 C 20.011719 7.695313 18.296875 7.066406 16.65625 6.5625 C 17.597656 6.390625 18.675781 6.25 19.84375 6.21875 Z M 4.875 6.625 C 5.3125 6.621094 6.039063 6.625 7.5 6.75 C 7.59375 6.757813 7.652344 6.773438 7.75 6.78125 C 7.761719 6.78125 7.769531 6.78125 7.78125 6.78125 C 7.808594 6.785156 7.847656 6.777344 7.875 6.78125 C 9.105469 6.898438 10.609375 7.140625 12.25 7.46875 C 12.421875 7.566406 12.617188 7.609375 12.8125 7.59375 C 14.542969 7.964844 16.414063 8.464844 18.34375 9.1875 C 16.671875 9.074219 14.878906 9 13 9 C 9.6875 9 6.644531 9.207031 4.09375 9.53125 C 4.222656 8.425781 4.480469 7.46875 4.875 6.625 Z M 6 11 C 7.742188 11.546875 11 12.5 11 12.5 C 10.875 13.121094 10.105469 14 9 14 C 7.140625 14 6 12.105469 6 11 Z M 20 11 C 20 12.105469 18.859375 14 17 14 C 15.894531 14 15.125 13.121094 15 12.5 C 15 12.5 18.257813 11.546875 20 11 Z M 21.28125 15.5625 C 20.964844 16.609375 20.558594 17.625 20.0625 18.5625 C 15.746094 18.007813 12.167969 16.890625 9.6875 15.9375 C 10.757813 15.980469 11.859375 16 13 16 C 16.046875 16 18.859375 15.839844 21.28125 15.5625 Z M 4.8125 15.875 C 4.832031 15.886719 4.855469 15.898438 4.875 15.90625 C 4.875 15.90625 10.515625 19.121094 18.9375 20.375 C 18.414063 21.085938 17.851563 21.699219 17.25 22.21875 C 10.382813 20.984375 5.804688 17.527344 5.25 17.09375 C 5.085938 16.691406 4.945313 16.289063 4.8125 15.875 Z M 7.34375 20.78125 C 9.21875 21.804688 11.761719 22.914063 14.78125 23.6875 C 14.199219 23.886719 13.601563 24 13 24 C 10.945313 24 8.945313 22.792969 7.34375 20.78125 Z"/></svg>