<svg fill="#000000" xmlns="http://www.w3.org/2000/svg"  viewBox="0 0 26 26" width="100px" height="100px"><path d="M 13 0 C 10.265625 0 8.105469 0.996094 6.625 2.5625 C 5.144531 4.128906 4.324219 6.191406 4 8.34375 C 3.984375 8.449219 3.984375 8.550781 4 8.65625 C 3.933594 9.089844 3.898438 9.542969 3.875 10 C 3.261719 10.039063 2.714844 10.34375 2.375 10.8125 C 2.121094 10.65625 1.976563 10.515625 2 10.0625 C 2 10.042969 2 10.019531 2 10 L 2 5 C 2.007813 4.691406 1.871094 4.398438 1.632813 4.203125 C 1.398438 4.007813 1.082031 3.933594 0.78125 4 C 0.316406 4.105469 -0.0117188 4.523438 0 5 L 0 10 C 0 10.003906 0.03125 9.996094 0.03125 10 C -0.00390625 11.25 0.777344 12.1875 1.46875 12.59375 C 1.757813 12.761719 2.015625 12.863281 2.25 12.9375 C 2.585938 13.566406 3.238281 14 4 14 C 4.0625 14 4.101563 14.003906 4.15625 14 C 4.816406 17.746094 6.269531 20.632813 7.875 22.625 C 8.738281 23.695313 9.640625 24.527344 10.5 25.09375 C 11.359375 25.660156 12.167969 26 13 26 C 13.910156 26 14.703125 25.578125 15.5625 24.9375 C 16.421875 24.296875 17.296875 23.402344 18.15625 22.28125 C 19.742188 20.21875 21.207031 17.363281 21.84375 14 C 21.898438 14.003906 21.9375 14 22 14 C 22.761719 14 23.414063 13.566406 23.75 12.9375 C 23.984375 12.863281 24.242188 12.761719 24.53125 12.59375 C 25.222656 12.1875 26.003906 11.25 25.96875 10 C 25.96875 9.972656 26 9.964844 26 9.9375 L 26 5 C 26.007813 4.691406 25.871094 4.398438 25.632813 4.203125 C 25.398438 4.007813 25.082031 3.933594 24.78125 4 C 24.316406 4.105469 23.988281 4.523438 24 5 L 24 10 C 24 10.019531 24 10.042969 24 10.0625 C 24.023438 10.515625 23.878906 10.65625 23.625 10.8125 C 23.285156 10.34375 22.738281 10.039063 22.125 10 C 22.105469 9.511719 22.066406 9.050781 22 8.59375 C 22 8.574219 22 8.550781 22 8.53125 C 22 8.519531 22 8.511719 22 8.5 C 22.003906 8.449219 22.003906 8.394531 22 8.34375 C 21.675781 6.191406 20.855469 4.128906 19.375 2.5625 C 17.894531 0.996094 15.734375 0 13 0 Z M 19.71875 9.34375 C 20.214844 9.34375 20.542969 9.398438 20.59375 9.5 C 20.992188 10.398438 20.09375 12.3125 20.09375 12.3125 L 17.1875 14.09375 L 14 11.3125 L 14 10.8125 C 15.273438 9.835938 18.234375 9.347656 19.71875 9.34375 Z M 6.28125 9.4375 C 7.765625 9.441406 10.726563 9.929688 12 10.90625 L 12 11.40625 L 9 14.09375 L 5.90625 12.3125 C 5.90625 12.3125 5.007813 10.394531 5.40625 9.59375 C 5.457031 9.492188 5.785156 9.4375 6.28125 9.4375 Z M 7 11.09375 C 7 11.792969 7.789063 13 9.1875 13 C 10.386719 13 11 12.199219 11 12 Z M 19 11.09375 L 15.09375 12 C 15.09375 12.199219 15.707031 13 16.90625 13 C 18.207031 13 19 11.894531 19 11.09375 Z M 13 12.90625 C 13.699219 12.90625 17 16 17 16 L 19.65625 14.59375 C 19.015625 17.195313 17.851563 19.429688 16.59375 21.0625 C 15.828125 22.054688 15.015625 22.8125 14.34375 23.3125 C 13.671875 23.8125 13.089844 24 13 24 C 12.832031 24 12.28125 23.839844 11.625 23.40625 C 10.96875 22.972656 10.183594 22.304688 9.4375 21.375 C 8.230469 19.878906 7.113281 17.738281 6.4375 14.96875 L 9 16 C 9 16 12.300781 12.90625 13 12.90625 Z M 13 18.09375 C 11.800781 18.09375 10.699219 18.710938 10.5 18.8125 C 10 19.113281 9.792969 18.8125 10.09375 19.3125 C 10.394531 19.8125 11 19.988281 11.5 19.6875 C 11.699219 19.585938 12.398438 19.3125 13 19.3125 C 13.601563 19.3125 14.300781 19.585938 14.5 19.6875 C 14.601563 19.789063 14.800781 19.8125 15 19.8125 C 15.398438 19.8125 15.707031 19.613281 15.90625 19.3125 C 16.105469 18.8125 16 19.113281 15.5 18.8125 C 15.398438 18.710938 14.199219 18.09375 13 18.09375 Z"/></svg>