<svg fill="#000000" xmlns="http://www.w3.org/2000/svg"  viewBox="0 0 26 26" width="100px" height="100px"><path fill-rule="evenodd" d="M 21.300781 4 L 4.300781 4 L 0 9 L 13 23.800781 L 26 9 Z M 19.300781 5.601563 C 19 6 18.601563 6.398438 18.300781 6.800781 C 18 6.398438 17.601563 6 17 5.601563 C 17.699219 5.601563 18.5 5.601563 19.300781 5.601563 Z M 3.601563 11 C 3 10.300781 2.300781 9.699219 1.699219 9 C 2.699219 7.898438 3.601563 6.601563 4.601563 5.5 C 5.300781 5.5 6.101563 5.5 6.800781 5.5 C 3.898438 6.898438 3 9.5 3.601563 11 Z M 13 21.800781 C 12 20.601563 11.101563 19.5 10.101563 18.300781 C 12.101563 19.101563 14.5 19 16.101563 18.300781 C 15.101563 19.5 14 20.699219 13 21.800781 Z M 12.699219 16.5 C 12 15.699219 9.398438 15 7.601563 15.699219 C 6.898438 14.898438 6.300781 14.199219 5.601563 13.5 C 8.699219 13.699219 12.398438 14.101563 15.699219 14.199219 C 16.101563 14.199219 18 14.5 18.101563 15.398438 C 17.898438 16.699219 13.699219 17.101563 12.699219 16.5 Z M 16.898438 10 C 15.101563 9.898438 13.199219 10 11.398438 9.898438 C 10.101563 9.699219 7.699219 9.101563 7.699219 8 C 7.699219 6.800781 9.898438 5.898438 10.898438 5.699219 C 12.5 5.398438 14.300781 5.699219 15.199219 6.199219 C 16.800781 7 17.199219 8 17.5 9.101563 C 18.898438 9.101563 20.398438 9.101563 21.800781 9.101563 C 21.800781 8.199219 21.800781 7.300781 21.800781 6.5 C 22.601563 7.300781 23.398438 8.300781 24.199219 9.101563 C 23.199219 10.300781 22.199219 11.101563 21.199219 12.300781 C 20 10.699219 18.601563 10 16.898438 10 Z"/></svg>