<svg fill="#000000" xmlns="http://www.w3.org/2000/svg"  viewBox="0 0 26 26" width="100px" height="100px"><path d="M 20.09375 0.1875 L 8.90625 12.1875 L 12.1875 11.6875 L 8 17.90625 L 11.1875 17.5 L 5.8125 26 L 16.6875 14.8125 L 13.40625 15.09375 L 18.5 8.59375 L 14.5 9.6875 Z M 13 3 C 7.5 3 3 7.5 3 13 C 3 16.5 4.707031 19.511719 7.40625 21.3125 C 7.605469 20.914063 7.894531 20.492188 8.09375 20.09375 C 8.195313 19.894531 8.3125 19.789063 8.3125 19.6875 C 6.210938 18.1875 4.8125 15.800781 4.8125 13 C 4.8125 8.5 8.40625 4.90625 12.90625 4.90625 C 13.304688 4.90625 13.6875 4.898438 14.1875 5 L 15.6875 3.40625 C 14.886719 3.105469 14 3 13 3 Z M 18.59375 4.6875 L 17.59375 6.3125 C 19.695313 7.8125 21.09375 10.199219 21.09375 13 C 21.09375 17.5 17.5 21.09375 13 21.09375 C 12.699219 21.09375 12.300781 21.101563 12 21 L 10.40625 22.59375 C 11.207031 22.792969 12.101563 22.90625 13 22.90625 C 18.5 22.90625 23 18.40625 23 12.90625 C 23 9.507813 21.195313 6.488281 18.59375 4.6875 Z"/></svg>