<svg fill="#000000" xmlns="http://www.w3.org/2000/svg"  viewBox="0 0 26 26" width="100px" height="100px"><path d="M 13 0 C 13 0 8.710938 -0.105469 5.3125 2.59375 C 4.414063 3.894531 4.101563 8 4 9 L 3.8125 9 C 3.613281 9 3.40625 9.207031 3.40625 9.40625 L 3.59375 14.59375 C 3.59375 14.792969 3.800781 15 4 15 L 4.3125 15 L 4.3125 15.09375 C 4.3125 15.09375 5.5 20.507813 6 21.40625 C 6.601563 22.605469 8.289063 24.792969 9.6875 25.59375 C 10.289063 25.894531 11.804688 26 12.90625 26 C 14.105469 26 15.59375 25.894531 16.09375 25.59375 C 17.492188 24.894531 19.210938 22.605469 19.8125 21.40625 C 20.3125 20.507813 21.5 15.09375 21.5 15.09375 L 21.5 15 L 22 15 C 22.199219 15 22.40625 14.792969 22.40625 14.59375 L 22.59375 9.40625 C 22.59375 9.207031 22.386719 9 22.1875 9 L 22 9 C 21.898438 8 21.6875 3.894531 20.6875 2.59375 C 17.289063 -0.105469 13 0 13 0 Z M 10.1875 2 L 10.90625 7.09375 C 10.90625 7.09375 11.09375 8.210938 11.09375 8.3125 C 11.09375 8.414063 11.8125 8.59375 11.8125 8.59375 L 14.40625 8.59375 C 14.40625 8.59375 15.09375 8.414063 15.09375 8.3125 C 15.09375 8.210938 15.3125 7.09375 15.3125 7.09375 L 16 2 C 16 2 17.988281 2.492188 18.6875 3.09375 C 19.289063 3.695313 20 4.59375 20 4.59375 L 19.8125 11.40625 L 20.59375 13.6875 C 20.492188 13.789063 20.300781 15.195313 20 15.59375 C 19.699219 15.992188 17.8125 19.59375 17.8125 19.59375 C 17.8125 19.59375 17.511719 21.011719 17.8125 22.3125 C 18.113281 23.613281 17.5 23.6875 17.5 23.6875 L 16.6875 24.59375 L 15.3125 24 L 11 24 L 9.59375 24.59375 L 8.8125 23.6875 C 8.8125 23.6875 8.199219 23.613281 8.5 22.3125 C 8.800781 21.011719 8.5 19.59375 8.5 19.59375 C 8.5 19.59375 6.300781 15.992188 6 15.59375 C 5.699219 15.195313 5.5 13.8125 5.5 13.8125 L 6.3125 11.5 L 6.09375 4.59375 C 6.09375 4.59375 6.699219 3.695313 7.5 3.09375 C 8.199219 2.59375 10.1875 2 10.1875 2 Z M 6.78125 12.96875 C 6.730469 12.980469 6.6875 13 6.6875 13 L 5.90625 13.59375 C 5.90625 13.59375 5.707031 13.804688 5.90625 13.90625 C 6.40625 14.207031 7.511719 14.898438 7.8125 15 C 8.011719 15.199219 8.40625 15.1875 8.40625 15.1875 L 10.40625 15.3125 C 10.40625 15.3125 10.710938 15.292969 10.8125 15.09375 C 10.914063 14.992188 11.3125 14.40625 11.3125 14.40625 C 11.3125 14.40625 11.59375 14.195313 11.09375 14.09375 C 9.394531 13.992188 7.601563 13.199219 7 13 C 6.898438 12.949219 6.832031 12.957031 6.78125 12.96875 Z M 19.21875 12.96875 C 19.167969 12.957031 19.101563 12.949219 19 13 C 18.398438 13.199219 16.605469 13.992188 14.90625 14.09375 C 14.40625 14.195313 14.6875 14.40625 14.6875 14.40625 C 14.6875 14.40625 15.085938 14.992188 15.1875 15.09375 C 15.289063 15.292969 15.59375 15.3125 15.59375 15.3125 L 17.59375 15.1875 C 17.59375 15.1875 17.988281 15.199219 18.1875 15 C 18.488281 14.898438 19.59375 14.207031 20.09375 13.90625 C 20.292969 13.804688 20.09375 13.59375 20.09375 13.59375 L 19.3125 13 C 19.3125 13 19.269531 12.980469 19.21875 12.96875 Z"/></svg>