<svg fill="#000000" xmlns="http://www.w3.org/2000/svg"  viewBox="0 0 26 26" width="100px" height="100px"><path d="M 13 0.101563 C 8.101563 0.101563 4.101563 3.101563 4.101563 10.199219 C 4.101563 17.300781 8.101563 25.800781 13 25.800781 C 17.898438 25.800781 21.898438 17.300781 21.898438 10.199219 C 21.898438 3.101563 17.898438 0.101563 13 0.101563 Z M 7.300781 14.898438 C 7 14.5 6.398438 14.398438 6.398438 14.398438 L 6.300781 13.699219 C 6.300781 13.699219 6.300781 13.699219 5.800781 12.101563 C 5.300781 10.300781 5.199219 8.300781 6 7.101563 C 6.398438 6.398438 7 6.199219 7 6.199219 C 7 6.199219 6.300781 7.101563 6.601563 7.898438 C 6.800781 8.601563 7.601563 8.601563 7.898438 8.398438 C 8.101563 8.199219 8.5 8 8.5 8 C 8.5 8 8.101563 9 8.601563 10.699219 C 8.898438 11.898438 9.5 12.601563 10.101563 12.699219 C 11 12.898438 12 10.699219 12 10.699219 C 12 10.699219 12.101563 13.300781 12.101563 13.800781 C 12.101563 13.800781 11.199219 14.300781 10.800781 14.898438 C 10.5 15.398438 9.800781 16.398438 9.199219 16.699219 C 8.601563 16.300781 8.398438 15.800781 8 15.601563 C 7.601563 15.601563 7 15.898438 7 15.898438 C 7 15.898438 7.601563 15.300781 7.300781 14.898438 Z M 16.699219 21.898438 C 16.601563 22.199219 16.199219 22.800781 15.601563 23.300781 C 15.601563 23 15.300781 22.398438 15.300781 22.398438 C 15.300781 22.398438 15 23.5 15 23.800781 C 14.898438 23.800781 14.898438 23.898438 14.800781 23.898438 C 14.699219 23.398438 14.398438 22.699219 14.398438 22.699219 C 14.398438 22.699219 14.101563 23.800781 14.199219 24.101563 C 14.101563 24.101563 14.101563 24.101563 14 24.101563 C 14 23.300781 13.601563 22.101563 13.601563 22.101563 C 13.601563 22.101563 13 23.699219 13 24.199219 L 13 24.101563 L 13 24.199219 C 13 23.699219 12.5 22.101563 12.5 22.101563 C 12.5 22.101563 12.101563 23.300781 12.101563 24.101563 C 12 24.101563 12 24.101563 11.898438 24.101563 C 11.898438 23.800781 11.699219 22.699219 11.699219 22.699219 C 11.699219 22.699219 11.398438 23.398438 11.300781 23.898438 C 11.199219 23.898438 11.199219 23.800781 11.101563 23.800781 C 11.101563 23.5 10.800781 22.398438 10.800781 22.398438 C 10.800781 22.398438 10.5 23 10.5 23.300781 C 9.898438 22.800781 9.5 22.199219 9.398438 21.898438 C 9 21.398438 7.800781 19.699219 8 19.101563 C 8.101563 19.398438 8.398438 20 8.398438 20 C 8.398438 20 8.398438 19.101563 8.398438 18.601563 C 8.398438 18.601563 8.5 18.5 8.5 18.5 C 8.699219 19.398438 9.199219 20.699219 9.199219 20.699219 C 9.199219 20.699219 9.398438 19.699219 9.300781 18.101563 C 9.398438 18.101563 9.5 18 9.5 18 C 9.898438 19.300781 10.300781 20.300781 10.300781 20.300781 C 10.300781 20.300781 10.5 19.5 10.601563 17.699219 C 10.699219 17.699219 10.699219 17.699219 10.800781 17.601563 C 11 18.699219 11.398438 19.898438 11.398438 19.898438 C 11.398438 19.898438 11.699219 18.800781 11.800781 17.398438 C 11.800781 17.300781 11.898438 17.398438 12 17.398438 C 12.199219 19.101563 12.5 20.601563 12.5 20.601563 C 12.5 20.601563 13 19.300781 13 17.300781 L 13 17.398438 L 13 17.300781 C 13.101563 19.300781 13.5 20.601563 13.5 20.601563 C 13.5 20.601563 13.898438 19.101563 14 17.398438 C 14.101563 17.398438 14.199219 17.398438 14.199219 17.398438 C 14.300781 18.800781 14.601563 19.898438 14.601563 19.898438 C 14.601563 19.898438 15 18.601563 15.199219 17.601563 C 15.300781 17.601563 15.300781 17.601563 15.398438 17.699219 C 15.5 19.5 15.699219 20.300781 15.699219 20.300781 C 15.699219 20.300781 16.101563 19.300781 16.5 18 C 16.601563 18 16.699219 18.101563 16.699219 18.101563 C 16.601563 19.699219 16.800781 20.699219 16.800781 20.699219 C 16.800781 20.699219 17.300781 19.398438 17.5 18.5 C 17.5 18.5 17.601563 18.601563 17.601563 18.601563 C 17.601563 19.101563 17.601563 20 17.601563 20 C 17.601563 20 17.898438 19.300781 18 19.101563 C 18.199219 19.699219 17 21.398438 16.699219 21.898438 Z M 19.699219 13.800781 L 19.601563 14.5 C 19.601563 14.5 19 14.601563 18.699219 15 C 18.398438 15.300781 18.898438 16.101563 18.898438 16.101563 C 18.898438 16.101563 18.300781 15.800781 17.898438 15.800781 C 17.5 16 17.300781 16.398438 16.699219 16.898438 C 16.101563 16.5 15.398438 15.601563 15.101563 15.101563 C 14.699219 14.5 13.800781 14 13.800781 14 C 13.898438 13.5 13.898438 10.898438 13.898438 10.898438 C 13.898438 10.898438 14.800781 13.101563 15.800781 12.898438 C 16.5 12.699219 17 12 17.300781 10.898438 C 17.898438 9 17.5 8 17.5 8 C 17.5 8 17.898438 8.199219 18.101563 8.300781 C 18.398438 8.5 19.101563 8.5 19.398438 7.800781 C 19.699219 7.101563 19 6.101563 19 6.101563 C 19 6.101563 19.5 6.300781 20 7 C 20.699219 8.199219 20.699219 10.199219 20.101563 12.101563 C 19.699219 13.800781 19.699219 13.800781 19.699219 13.800781 Z"/></svg>